<svg id="svg" version="1.1" xmlns="http://www.w3.org/2000/svg" xmlns:xlink="http://www.w3.org/1999/xlink" width="400" height="414.2857142857143" viewBox="0, 0, 400,414.2857142857143"><g id="svgg"><path id="path0" d="M190.168 4.938 C 190.061 5.218,190.024 6.607,190.087 8.024 L 190.200 10.600 188.800 10.623 C 187.568 10.644,187.376 10.789,187.200 11.828 C 187.081 12.532,186.758 13.003,186.400 12.994 C 186.070 12.986,185.562 13.254,185.270 13.590 C 184.902 14.014,184.830 14.028,185.032 13.638 C 185.215 13.285,185.163 13.175,184.893 13.343 C 184.646 13.495,184.491 14.677,184.531 16.105 C 184.569 17.477,184.440 18.630,184.245 18.666 C 184.049 18.702,183.734 18.972,183.545 19.266 C 183.262 19.703,183.129 19.692,182.806 19.200 C 182.456 18.667,182.406 18.667,182.359 19.200 C 182.329 19.530,182.168 19.260,182.000 18.600 C 181.739 17.574,181.688 17.705,181.647 19.500 C 181.598 21.677,181.454 21.820,179.500 21.621 C 178.682 21.538,178.472 23.075,178.945 25.686 C 179.201 27.096,178.618 27.800,177.194 27.800 C 176.215 27.800,175.997 27.655,176.142 27.100 C 176.243 26.715,176.162 26.400,175.963 26.400 C 175.763 26.400,175.600 27.210,175.600 28.200 C 175.600 29.511,175.437 30.014,175.000 30.050 C 174.670 30.078,174.220 30.145,174.000 30.200 C 173.780 30.255,173.409 30.322,173.176 30.350 C 172.943 30.377,172.855 30.565,172.979 30.766 C 173.104 30.968,173.029 31.598,172.813 32.166 C 172.583 32.770,172.572 33.200,172.785 33.200 C 172.986 33.200,173.124 33.552,173.091 33.983 C 173.059 34.413,172.952 34.685,172.853 34.586 C 172.754 34.488,172.397 34.630,172.060 34.903 C 171.571 35.300,171.507 35.299,171.747 34.900 C 171.912 34.625,171.857 34.400,171.624 34.400 C 171.391 34.400,171.200 34.198,171.200 33.951 C 171.200 33.628,171.359 33.634,171.764 33.970 C 172.150 34.291,172.411 34.306,172.588 34.019 C 172.834 33.622,172.668 33.533,171.500 33.440 C 171.225 33.418,170.848 33.220,170.662 33.000 C 170.466 32.767,170.419 32.893,170.550 33.300 C 170.674 33.685,170.601 34.000,170.387 34.000 C 170.174 34.000,170.021 34.405,170.046 34.900 C 170.082 35.585,170.137 35.632,170.277 35.095 C 170.378 34.707,170.630 34.495,170.837 34.623 C 171.044 34.751,171.109 35.023,170.983 35.228 C 170.856 35.432,170.943 35.600,171.176 35.600 C 171.409 35.600,171.600 35.760,171.600 35.956 C 171.600 36.151,171.285 36.286,170.900 36.256 C 170.390 36.215,170.166 36.548,170.076 37.478 C 169.987 38.404,169.792 38.695,169.371 38.534 C 169.051 38.411,168.551 38.509,168.258 38.752 C 167.966 38.994,167.590 39.060,167.424 38.897 C 167.258 38.733,167.160 39.050,167.205 39.600 C 167.382 41.726,167.192 42.208,165.960 42.754 C 165.277 43.056,164.904 43.417,165.131 43.557 C 165.358 43.697,165.500 44.709,165.447 45.805 C 165.340 48.026,163.984 49.082,162.462 48.132 C 161.763 47.695,161.565 48.247,161.505 50.800 C 161.487 51.569,160.832 52.402,160.251 52.394 C 160.003 52.391,160.070 52.197,160.400 51.963 C 160.933 51.586,160.933 51.557,160.400 51.703 C 159.968 51.822,159.800 52.430,159.800 53.871 C 159.800 56.001,159.055 57.384,158.104 57.019 C 157.109 56.637,155.600 57.240,155.600 58.020 C 155.600 58.423,155.392 58.881,155.138 59.038 C 154.852 59.215,154.785 59.148,154.962 58.862 C 155.133 58.585,154.987 58.400,154.600 58.400 C 154.244 58.400,154.063 58.578,154.197 58.795 C 154.337 59.022,154.177 59.089,153.824 58.954 C 153.446 58.809,153.100 58.995,152.931 59.435 C 152.770 59.854,152.852 60.217,153.128 60.309 C 153.388 60.396,153.600 60.642,153.600 60.857 C 153.600 61.072,153.420 61.136,153.200 61.000 C 152.980 60.864,152.800 60.900,152.800 61.080 C 152.800 61.260,153.160 61.632,153.600 61.907 C 154.533 62.490,154.691 64.566,153.866 65.391 C 153.121 66.137,150.474 66.012,150.261 65.221 C 150.168 64.880,150.072 65.263,150.046 66.074 C 150.003 67.443,149.925 67.533,148.935 67.354 C 147.968 67.179,147.922 67.224,148.435 67.846 C 148.947 68.467,148.924 68.490,148.183 68.096 C 147.101 67.520,146.930 68.937,147.905 70.397 C 149.474 72.746,148.558 74.753,146.127 74.288 C 145.456 74.160,144.996 74.338,144.676 74.850 C 144.418 75.263,143.930 75.600,143.591 75.600 C 143.212 75.600,142.940 76.011,142.886 76.668 C 142.755 78.246,142.400 78.343,142.400 76.800 C 142.400 75.111,142.007 75.460,141.771 77.358 C 141.640 78.414,141.743 78.800,142.153 78.800 C 143.450 78.800,143.570 81.695,142.311 82.577 C 140.859 83.595,139.334 83.383,138.865 82.100 C 138.483 81.056,138.462 81.086,138.432 82.700 C 138.401 84.357,138.173 84.603,136.843 84.417 C 135.558 84.237,135.098 86.975,136.358 87.305 C 138.638 87.901,137.433 91.600,134.958 91.600 C 134.128 91.600,133.497 91.854,133.256 92.286 C 133.039 92.674,132.378 92.981,131.736 92.991 C 130.884 93.006,130.629 93.184,130.718 93.705 C 130.782 94.087,130.647 94.400,130.418 94.400 C 129.689 94.400,129.967 95.787,130.800 96.307 C 132.763 97.533,131.270 100.400,128.669 100.400 C 127.861 100.400,127.200 100.580,127.200 100.800 C 127.200 101.020,126.995 101.200,126.744 101.200 C 126.493 101.200,126.030 101.515,125.714 101.900 C 125.399 102.285,125.255 102.375,125.394 102.100 C 125.544 101.804,125.389 101.600,125.012 101.600 C 124.190 101.600,124.384 103.602,125.409 105.691 C 126.331 107.573,125.440 108.985,123.509 108.701 C 122.896 108.611,122.382 108.731,122.360 108.969 C 122.338 109.206,122.176 108.950,122.000 108.400 C 121.710 107.494,121.676 107.535,121.640 108.845 C 121.601 110.269,121.579 110.287,120.114 110.126 C 119.297 110.036,118.741 110.074,118.878 110.211 C 119.015 110.348,118.983 110.963,118.806 111.578 C 118.558 112.445,118.655 112.841,119.243 113.344 C 120.129 114.103,120.246 116.098,119.443 116.765 C 118.246 117.758,116.054 117.549,115.879 116.426 C 115.784 115.813,115.696 116.102,115.660 117.143 C 115.614 118.478,115.466 118.834,115.026 118.665 C 114.710 118.544,114.364 118.660,114.257 118.922 C 114.125 119.248,114.053 119.225,114.032 118.851 C 114.006 118.409,113.884 118.399,113.400 118.800 C 112.558 119.499,112.654 121.076,113.600 122.092 C 114.952 123.543,114.084 126.218,112.339 125.979 C 110.955 125.789,110.077 126.063,109.900 126.739 C 109.751 127.308,109.428 127.436,108.487 127.298 C 107.076 127.091,106.960 127.949,107.974 131.087 C 108.625 133.103,108.066 134.182,106.524 133.888 C 106.016 133.790,105.600 133.866,105.600 134.055 C 105.600 134.245,105.330 134.400,105.000 134.400 C 104.670 134.400,104.400 134.659,104.400 134.975 C 104.400 135.330,103.906 135.597,103.105 135.675 C 101.951 135.786,101.783 135.963,101.570 137.283 C 101.439 138.099,101.482 138.673,101.666 138.559 C 101.850 138.446,102.000 138.735,102.000 139.203 C 102.000 139.670,102.176 140.382,102.392 140.784 C 102.889 141.713,102.313 142.203,100.300 142.566 C 98.869 142.824,98.797 142.785,98.737 141.718 C 98.703 141.103,98.568 141.500,98.437 142.600 C 98.209 144.524,98.156 144.595,97.047 144.464 C 96.001 144.341,95.911 144.424,96.089 145.352 C 96.196 145.915,96.130 146.281,95.942 146.164 C 95.362 145.806,95.565 146.822,96.200 147.457 C 97.733 148.990,96.758 151.257,94.665 151.027 C 93.860 150.939,93.557 151.147,93.262 151.994 C 92.941 152.916,92.706 153.048,91.661 152.894 C 90.580 152.736,90.407 152.848,90.185 153.857 C 90.046 154.486,89.864 155.225,89.779 155.500 C 89.694 155.775,89.760 156.000,89.925 156.000 C 90.709 156.000,91.205 158.565,90.498 158.961 C 90.114 159.176,89.783 159.273,89.761 159.176 C 89.740 159.079,89.412 159.258,89.031 159.574 C 88.444 160.061,88.287 160.064,87.997 159.595 C 87.741 159.181,87.587 159.313,87.384 160.121 C 87.128 161.140,86.800 161.366,85.753 161.242 C 85.052 161.159,84.284 162.321,84.562 163.046 C 84.701 163.406,84.609 163.949,84.358 164.251 C 84.024 164.653,84.022 164.800,84.351 164.800 C 84.598 164.800,84.800 165.430,84.800 166.200 C 84.800 167.141,84.614 167.600,84.233 167.600 C 83.922 167.600,83.575 167.825,83.464 168.100 C 83.311 168.476,83.156 168.452,82.837 168.000 C 82.459 167.467,82.408 167.467,82.378 168.000 C 82.355 168.404,82.232 168.339,82.000 167.800 C 81.724 167.158,81.651 167.297,81.628 168.500 C 81.599 170.030,81.431 170.158,79.644 170.008 C 78.865 169.943,78.727 170.078,78.900 170.738 C 79.016 171.184,78.851 171.920,78.533 172.374 C 78.018 173.110,78.028 173.200,78.622 173.200 C 79.208 173.200,79.196 173.285,78.525 173.900 C 78.106 174.285,77.980 174.456,78.246 174.281 C 78.954 173.812,79.306 174.654,78.798 175.604 C 78.336 176.467,76.515 176.589,75.876 175.800 C 75.698 175.580,75.610 176.135,75.680 177.032 C 75.807 178.650,75.797 178.664,74.501 178.577 C 72.922 178.471,72.599 179.273,73.119 182.007 C 73.542 184.237,73.384 184.773,72.381 184.511 C 71.951 184.399,71.600 184.488,71.600 184.709 C 71.600 184.930,71.285 185.086,70.900 185.056 C 70.416 185.017,70.161 185.340,70.073 186.100 C 69.964 187.053,69.770 187.200,68.620 187.200 C 67.184 187.200,67.263 186.990,67.176 191.067 C 67.150 192.339,66.336 193.055,65.502 192.539 C 65.251 192.384,65.194 192.466,65.362 192.738 C 65.531 193.012,65.393 193.200,65.024 193.200 C 64.597 193.200,64.400 193.580,64.400 194.400 C 64.400 195.505,64.289 195.600,63.000 195.600 C 61.695 195.600,61.597 195.689,61.560 196.900 C 61.507 198.633,60.900 200.657,60.840 199.303 C 60.800 198.395,59.624 198.203,58.910 198.987 C 58.740 199.175,58.825 199.199,59.100 199.041 C 59.391 198.873,59.602 198.971,59.605 199.276 C 59.608 199.564,59.719 200.205,59.852 200.700 C 60.039 201.397,59.925 201.601,59.347 201.606 C 58.787 201.611,58.733 201.697,59.132 201.950 C 60.074 202.547,59.526 204.534,58.251 205.142 C 57.282 205.605,57.049 205.605,56.758 205.145 C 56.568 204.845,56.407 204.780,56.400 205.000 C 56.393 205.220,56.213 205.130,56.000 204.800 C 55.669 204.287,55.611 204.302,55.606 204.900 C 55.603 205.285,55.802 205.600,56.049 205.600 C 56.365 205.600,56.355 205.772,56.015 206.182 C 55.749 206.503,55.647 206.953,55.789 207.182 C 55.954 207.450,55.509 207.564,54.550 207.500 C 52.928 207.392,52.251 208.994,53.423 210.166 C 54.662 211.405,53.891 214.500,52.399 214.273 C 51.971 214.207,51.505 214.038,51.363 213.896 C 50.963 213.496,50.087 214.563,49.936 215.635 C 49.772 216.795,49.139 217.600,48.632 217.292 C 48.430 217.169,48.379 217.368,48.519 217.734 C 48.671 218.130,48.577 218.402,48.287 218.406 C 47.906 218.411,47.906 218.479,48.285 218.721 C 48.566 218.899,48.802 220.080,48.845 221.519 L 48.920 224.008 83.599 223.996 L 118.279 223.983 118.312 222.797 C 118.360 221.135,118.636 220.844,119.967 221.054 C 120.607 221.155,121.246 221.049,121.389 220.818 C 121.531 220.588,121.412 220.397,121.124 220.394 C 120.732 220.389,120.721 220.311,121.078 220.084 C 121.604 219.749,121.556 219.169,120.861 217.474 C 120.180 215.812,121.199 213.588,122.300 214.332 C 122.355 214.370,122.490 214.378,122.600 214.350 C 122.710 214.322,122.980 214.255,123.200 214.200 C 123.420 214.145,123.780 214.078,124.000 214.050 C 124.220 214.023,124.400 213.730,124.400 213.400 C 124.400 213.041,124.769 212.800,125.320 212.800 C 126.492 212.800,127.200 212.092,127.200 210.920 C 127.200 210.169,127.416 210.000,128.376 210.000 C 129.023 210.000,129.683 209.789,129.842 209.532 C 130.042 209.209,129.895 209.147,129.366 209.333 C 128.703 209.566,128.682 209.535,129.216 209.101 C 130.077 208.400,130.101 206.886,129.255 206.618 C 126.965 205.891,128.935 202.378,131.532 202.558 C 132.505 202.625,132.800 202.483,132.800 201.948 C 132.800 201.454,133.178 201.214,134.100 201.125 C 135.312 201.008,135.406 200.892,135.485 199.400 C 135.611 197.036,135.946 196.000,136.584 196.000 C 136.897 196.000,137.254 195.837,137.377 195.637 C 137.500 195.438,137.196 195.363,136.701 195.472 C 135.992 195.627,135.926 195.581,136.392 195.254 C 136.717 195.026,137.010 194.319,137.042 193.683 C 137.135 191.823,138.177 190.928,140.072 191.078 C 141.527 191.193,141.673 191.123,141.485 190.405 C 141.308 189.726,141.423 189.641,142.238 189.845 C 142.955 190.025,143.200 189.923,143.200 189.443 C 143.200 189.090,143.470 188.800,143.800 188.800 C 144.570 188.800,144.561 188.045,143.771 186.461 C 142.803 184.521,144.584 181.592,145.682 183.319 C 145.916 183.688,145.989 183.683,145.994 183.300 C 145.997 183.025,146.270 182.800,146.600 182.800 C 146.930 182.800,147.200 182.451,147.200 182.025 C 147.200 181.444,147.524 181.219,148.500 181.125 C 149.301 181.048,149.821 180.770,149.854 180.400 C 149.883 180.070,149.928 179.411,149.954 178.935 C 149.993 178.204,150.187 178.099,151.203 178.259 C 152.504 178.464,153.380 177.406,152.407 176.804 C 152.127 176.631,152.028 176.278,152.188 176.020 C 152.348 175.761,152.182 175.222,151.820 174.822 C 150.505 173.369,151.627 171.427,153.993 171.058 C 154.760 170.938,155.450 170.651,155.527 170.420 C 155.604 170.189,156.102 170.000,156.633 170.000 C 157.165 170.000,157.600 169.809,157.600 169.576 C 157.600 169.343,157.808 169.282,158.063 169.439 C 158.381 169.635,158.455 169.452,158.299 168.856 C 158.169 168.358,158.314 167.743,158.639 167.418 C 158.994 167.063,159.056 166.758,158.803 166.602 C 157.959 166.080,158.344 165.142,159.211 165.606 C 159.657 165.845,159.900 166.239,159.749 166.482 C 159.585 166.748,159.660 166.810,159.938 166.638 C 160.192 166.481,160.400 166.565,160.400 166.825 C 160.400 167.171,160.566 167.160,161.019 166.784 C 161.465 166.414,161.508 166.191,161.174 165.984 C 160.918 165.826,160.865 165.615,161.055 165.514 C 161.245 165.413,161.180 165.384,160.911 165.449 C 159.378 165.818,159.537 161.122,161.092 160.103 C 162.026 159.491,162.183 159.490,163.242 160.098 C 163.871 160.459,164.367 160.629,164.345 160.477 C 164.094 158.729,164.434 158.144,165.600 158.315 C 166.424 158.436,166.810 158.320,166.832 157.945 C 166.850 157.645,166.902 156.892,166.947 156.271 C 166.992 155.650,166.887 155.054,166.714 154.947 C 165.322 154.086,167.151 151.200,169.089 151.200 C 169.614 151.200,170.000 150.957,170.000 150.625 C 170.000 150.269,170.495 150.003,171.300 149.925 C 172.443 149.815,172.615 149.643,172.725 148.500 C 172.800 147.727,173.073 147.200,173.398 147.200 C 173.700 147.200,174.060 146.840,174.200 146.400 C 174.340 145.960,174.628 145.600,174.841 145.600 C 175.070 145.600,175.043 145.946,174.775 146.446 C 174.414 147.121,174.431 147.256,174.861 147.114 C 175.567 146.879,175.686 144.362,175.016 143.821 C 173.261 142.401,174.618 139.552,176.922 139.820 C 177.771 139.918,178.121 139.742,178.360 139.097 C 178.595 138.462,179.024 138.238,180.038 138.222 L 181.400 138.200 181.361 135.331 C 181.323 132.503,182.401 130.726,182.930 132.743 C 183.025 133.104,183.048 132.651,182.982 131.735 C 182.915 130.819,183.087 129.761,183.363 129.383 C 183.818 128.761,184.329 128.609,186.500 128.451 C 186.885 128.423,187.200 128.130,187.200 127.800 C 187.200 127.403,187.597 127.200,188.376 127.200 C 189.023 127.200,189.683 126.989,189.842 126.732 C 190.042 126.409,189.895 126.347,189.366 126.533 C 188.704 126.766,188.683 126.734,189.214 126.301 C 189.945 125.704,190.191 123.600,189.529 123.600 C 189.275 123.600,189.180 123.486,189.319 123.347 C 189.458 123.208,189.381 122.737,189.147 122.301 C 188.399 120.903,191.607 119.139,192.458 120.481 C 192.670 120.815,192.790 120.537,192.794 119.700 C 192.799 118.622,192.954 118.399,193.700 118.394 C 195.227 118.383,195.576 117.896,195.423 115.987 C 195.344 115.004,195.261 89.575,195.237 59.478 C 195.211 26.123,195.050 4.845,194.825 4.985 C 194.622 5.110,194.356 5.053,194.235 4.857 C 193.883 4.287,190.392 4.356,190.168 4.938 M197.794 57.800 C 197.794 87.280,197.842 99.281,197.900 84.469 C 197.958 69.657,197.958 45.537,197.900 30.869 C 197.842 16.201,197.794 28.320,197.794 57.800 M159.867 50.267 C 159.720 50.413,159.603 50.728,159.606 50.967 C 159.609 51.205,159.787 51.130,160.000 50.800 C 160.258 50.400,160.390 50.367,160.394 50.700 C 160.397 50.975,160.550 51.200,160.733 51.200 C 160.917 51.200,161.067 50.930,161.067 50.600 C 161.067 49.987,160.347 49.787,159.867 50.267 M70.800 181.545 C 70.800 181.734,71.250 181.803,71.800 181.698 C 72.350 181.593,72.800 181.438,72.800 181.353 C 72.800 181.269,72.350 181.200,71.800 181.200 C 71.250 181.200,70.800 181.355,70.800 181.545 M140.700 194.867 C 140.167 195.425,140.133 195.600,140.557 195.600 C 140.864 195.600,141.228 195.304,141.367 194.943 C 141.717 194.031,141.520 194.008,140.700 194.867 M136.200 196.800 C 135.908 197.273,135.874 197.255,137.400 197.423 C 138.529 197.547,138.554 197.521,137.824 196.977 C 136.908 196.297,136.536 196.256,136.200 196.800 M55.698 208.338 C 55.906 208.546,55.785 208.797,55.406 208.942 C 55.050 209.079,54.861 209.025,54.986 208.823 C 55.111 208.621,55.030 208.342,54.807 208.204 C 54.583 208.066,54.400 208.143,54.400 208.376 C 54.400 208.609,54.085 208.786,53.700 208.768 C 53.278 208.749,53.199 208.656,53.502 208.534 C 53.779 208.423,53.909 208.176,53.792 207.987 C 53.521 207.548,55.221 207.861,55.698 208.338 " stroke="none" fill="#bcbcbc" fill-rule="evenodd"></path><path id="path1" d="M187.260 7.580 C 187.432 8.096,187.981 8.188,188.030 7.710 C 188.047 7.550,187.844 7.348,187.580 7.260 C 187.316 7.172,187.172 7.316,187.260 7.580 M182.020 16.013 C 182.442 16.273,184.000 16.090,184.000 15.780 C 184.000 15.710,183.449 15.669,182.776 15.688 C 182.095 15.708,181.760 15.852,182.020 16.013 M175.600 24.800 C 175.600 25.020,175.870 25.200,176.200 25.200 C 176.530 25.200,176.800 25.020,176.800 24.800 C 176.800 24.580,176.530 24.400,176.200 24.400 C 175.870 24.400,175.600 24.580,175.600 24.800 M162.328 45.300 C 161.345 46.867,161.616 47.821,163.000 47.666 C 164.623 47.484,164.929 47.099,164.609 45.640 C 164.280 44.144,163.157 43.977,162.328 45.300 M156.337 53.479 C 156.718 54.194,156.690 54.422,156.186 54.704 C 155.084 55.321,155.902 56.284,157.442 56.181 C 159.217 56.062,159.223 56.053,158.935 54.274 C 158.749 53.134,158.576 52.888,158.186 53.212 C 157.822 53.514,157.619 53.486,157.470 53.117 C 157.309 52.715,157.256 52.722,157.232 53.149 C 157.205 53.614,157.099 53.614,156.535 53.149 C 155.933 52.652,155.914 52.684,156.337 53.479 M150.765 62.370 C 150.089 62.933,149.980 63.179,150.400 63.193 C 150.864 63.208,150.883 63.286,150.486 63.538 C 149.506 64.160,150.343 65.069,151.715 64.873 C 153.277 64.650,153.592 64.228,153.224 62.853 C 152.867 61.516,151.996 61.345,150.765 62.370 M145.052 70.612 C 143.794 71.531,144.356 73.430,145.871 73.380 C 147.604 73.323,147.969 72.891,147.555 71.386 C 147.201 70.097,146.185 69.783,145.052 70.612 M139.042 78.868 C 139.155 79.051,139.079 79.200,138.874 79.200 C 138.397 79.200,138.382 81.142,138.857 81.435 C 139.053 81.556,139.133 81.785,139.035 81.944 C 138.936 82.103,139.475 82.161,140.232 82.072 C 140.988 81.984,141.704 81.755,141.823 81.563 C 142.146 81.040,141.569 78.400,141.132 78.400 C 140.923 78.400,140.881 78.608,141.038 78.862 C 141.232 79.176,141.146 79.214,140.769 78.981 C 140.036 78.528,138.781 78.446,139.042 78.868 M132.934 88.682 C 132.992 89.836,133.163 90.028,134.330 90.249 C 135.993 90.563,136.480 90.098,136.160 88.498 C 135.765 86.524,132.835 86.691,132.934 88.682 M127.200 96.036 C 127.200 96.283,127.440 96.393,127.733 96.281 C 128.027 96.168,128.267 96.312,128.267 96.600 C 128.267 96.888,128.027 97.032,127.733 96.919 C 127.015 96.643,127.044 97.901,127.773 98.630 C 129.206 100.064,131.355 97.832,130.052 96.263 C 129.526 95.629,127.200 95.445,127.200 96.036 M121.600 106.000 C 121.600 107.401,121.712 107.597,122.500 107.572 C 125.255 107.486,125.524 104.400,122.776 104.400 C 121.671 104.400,121.600 104.496,121.600 106.000 M116.122 113.341 C 116.241 113.650,116.148 114.092,115.916 114.324 C 115.227 115.013,115.872 116.204,116.605 115.596 C 117.018 115.253,117.200 115.239,117.200 115.551 C 117.200 115.798,117.575 116.000,118.033 116.000 C 118.708 116.000,119.015 113.577,118.415 112.985 C 118.022 112.597,115.959 112.917,116.122 113.341 M111.206 121.500 C 111.203 121.775,110.960 122.000,110.667 122.000 C 110.373 122.000,110.133 122.270,110.133 122.600 C 110.133 123.384,110.384 123.358,111.078 122.500 C 111.588 121.869,111.600 121.890,111.204 122.708 C 110.961 123.208,110.872 123.793,111.005 124.008 C 111.323 124.523,113.200 124.516,113.200 124.000 C 113.200 123.780,113.009 123.600,112.776 123.600 C 112.543 123.600,112.464 123.420,112.600 123.200 C 112.736 122.980,112.657 122.800,112.424 122.800 C 112.191 122.800,112.000 122.626,112.000 122.413 C 112.000 122.199,112.270 122.129,112.600 122.255 C 112.930 122.382,113.200 122.297,113.200 122.066 C 113.200 121.427,112.491 121.129,112.178 121.636 C 111.981 121.954,111.800 121.927,111.556 121.543 C 111.303 121.143,111.211 121.132,111.206 121.500 M110.093 124.800 C 110.093 125.570,110.175 125.885,110.276 125.500 C 110.376 125.115,110.376 124.485,110.276 124.100 C 110.175 123.715,110.093 124.030,110.093 124.800 M184.481 129.506 C 184.200 129.600,184.000 130.426,184.000 131.495 C 184.000 133.242,184.033 133.294,184.731 132.662 C 185.518 131.951,186.191 131.767,185.822 132.365 C 185.698 132.566,185.912 132.684,186.298 132.627 C 186.684 132.571,187.055 132.181,187.122 131.762 C 187.223 131.126,187.174 131.099,186.828 131.600 C 186.467 132.122,186.411 132.113,186.406 131.533 C 186.403 131.167,186.625 130.784,186.900 130.683 C 188.156 130.223,185.789 129.070,184.481 129.506 M104.806 130.700 C 104.811 131.254,104.885 131.285,105.161 130.849 C 105.365 130.528,105.722 130.428,106.017 130.611 C 106.347 130.814,106.424 130.762,106.238 130.462 C 105.798 129.749,104.799 129.916,104.806 130.700 M176.100 141.065 C 175.825 141.176,175.600 141.733,175.600 142.303 L 175.600 143.339 176.526 142.470 C 177.035 141.991,177.620 141.605,177.826 141.611 C 178.032 141.617,177.570 142.152,176.800 142.800 L 175.400 143.978 176.524 143.989 C 177.173 143.995,177.543 143.831,177.400 143.600 C 177.264 143.380,177.436 143.200,177.783 143.200 C 178.236 143.200,178.387 142.864,178.321 142.000 C 178.230 140.806,177.502 140.499,176.100 141.065 M169.693 152.400 C 169.693 153.170,169.775 153.485,169.876 153.100 C 169.976 152.715,169.976 152.085,169.876 151.700 C 169.775 151.315,169.693 151.630,169.693 152.400 M169.479 154.557 C 169.315 154.974,169.275 155.409,169.391 155.524 C 169.755 155.889,170.076 155.291,169.924 154.531 C 169.783 153.835,169.762 153.836,169.479 154.557 M161.157 160.976 C 161.047 161.086,161.031 161.800,161.120 162.562 C 161.380 164.795,164.344 164.668,164.257 162.428 C 164.203 161.031,162.091 160.042,161.157 160.976 M82.200 164.306 C 81.980 164.468,81.752 164.870,81.694 165.200 C 81.612 165.664,81.712 165.642,82.134 165.106 C 82.434 164.725,82.778 164.512,82.899 164.633 C 83.021 164.754,83.239 164.661,83.384 164.427 C 83.681 163.945,82.812 163.857,82.200 164.306 M152.800 174.064 C 152.800 175.333,152.939 175.600,153.600 175.600 C 154.040 175.600,154.379 175.465,154.353 175.300 C 154.176 174.179,154.439 173.898,154.987 174.624 C 155.540 175.354,155.575 175.318,155.587 174.000 C 155.599 172.670,155.529 172.598,154.200 172.564 C 152.837 172.530,152.800 172.569,152.800 174.064 M144.594 186.813 C 144.018 187.022,144.212 187.104,145.300 187.111 C 146.125 187.116,146.800 187.069,146.800 187.007 C 146.800 186.693,145.288 186.560,144.594 186.813 M281.600 188.600 C 281.600 189.925,281.527 190.000,280.245 190.000 C 278.696 190.000,278.211 191.241,278.588 194.240 L 278.787 195.820 277.293 195.678 C 275.867 195.543,275.798 195.593,275.757 196.778 C 275.704 198.305,275.658 198.352,274.097 198.471 L 272.836 198.567 272.933 201.455 C 272.987 203.043,272.901 204.263,272.743 204.165 C 272.585 204.067,272.330 204.189,272.178 204.436 C 271.981 204.754,271.800 204.727,271.556 204.343 C 271.303 203.943,271.211 203.932,271.206 204.300 C 271.203 204.575,270.953 204.800,270.652 204.800 C 270.351 204.800,270.105 205.115,270.107 205.500 C 270.113 207.040,269.972 207.200,268.600 207.200 C 267.267 207.200,267.200 207.267,267.200 208.600 C 267.200 209.939,267.138 210.000,265.767 210.000 L 264.334 210.000 264.467 212.783 L 264.600 215.565 263.091 215.819 C 262.261 215.959,261.607 216.282,261.638 216.537 C 261.820 218.025,261.558 218.355,260.100 218.476 C 258.728 218.589,258.600 218.702,258.600 219.800 C 258.600 221.216,258.209 221.585,256.948 221.356 C 256.212 221.223,256.074 221.327,256.278 221.860 C 256.438 222.276,256.377 222.433,256.118 222.273 C 255.841 222.102,255.723 222.873,255.768 224.549 C 255.809 226.090,255.672 227.082,255.418 227.079 C 253.130 227.052,252.942 227.171,253.013 228.600 C 253.081 229.970,253.050 230.000,251.541 230.000 L 250.000 230.000 250.000 232.704 C 250.000 235.357,248.966 237.240,248.195 235.992 C 248.062 235.776,247.783 235.600,247.576 235.600 C 247.018 235.600,247.120 236.701,247.700 236.935 C 248.100 237.096,248.100 237.143,247.700 237.168 C 247.425 237.186,247.200 237.470,247.200 237.800 C 247.200 238.346,246.252 238.605,244.900 238.430 C 244.583 238.389,244.400 238.875,244.400 239.757 C 244.400 241.035,244.294 241.160,243.100 241.275 L 241.800 241.400 241.600 244.200 C 241.445 246.365,241.269 246.971,240.822 246.874 C 239.579 246.603,238.400 247.665,238.611 248.865 C 238.805 249.961,238.755 250.000,237.153 250.000 L 235.495 250.000 235.719 251.378 C 235.937 252.723,235.908 252.758,234.471 252.878 L 233.000 253.000 232.948 255.000 C 232.855 258.546,232.921 258.400,231.400 258.400 C 230.067 258.400,230.000 258.467,230.000 259.800 C 230.000 261.141,229.940 261.200,228.556 261.200 L 227.113 261.200 227.264 264.191 C 227.411 267.116,227.395 267.178,226.507 267.018 C 225.865 266.901,225.592 267.050,225.572 267.526 C 225.549 268.068,225.480 268.043,225.218 267.400 C 224.812 266.403,224.149 268.370,224.544 269.399 C 224.726 269.871,224.435 270.000,223.187 270.000 C 221.645 270.000,221.600 270.039,221.600 271.376 C 221.600 272.677,221.519 272.758,220.100 272.876 L 218.600 273.000 218.695 275.819 L 218.790 278.638 217.447 278.481 C 216.181 278.334,216.088 278.407,215.833 279.762 C 215.574 281.146,215.051 281.445,213.183 281.275 C 213.064 281.264,212.923 281.818,212.871 282.507 C 212.753 284.046,212.608 284.200,211.267 284.200 C 210.106 284.200,210.117 284.169,210.046 287.700 L 210.000 290.000 208.600 290.000 C 207.267 290.000,207.200 290.067,207.200 291.400 C 207.200 292.713,207.119 292.800,205.900 292.800 L 204.600 292.800 204.687 351.100 L 204.775 409.400 207.387 409.518 L 210.000 409.637 210.000 408.218 C 210.000 406.864,210.063 406.800,211.400 406.800 L 212.800 406.800 212.800 403.864 L 212.800 400.927 214.087 400.964 C 215.225 400.996,215.384 400.867,215.466 399.854 C 215.583 398.416,215.648 398.357,217.159 398.314 L 218.400 398.278 218.400 395.339 L 218.400 392.400 219.920 392.400 C 221.477 392.400,222.223 390.724,221.029 389.906 C 220.659 389.653,223.149 389.385,224.153 389.570 C 224.352 389.607,224.385 388.401,224.229 386.818 C 223.955 384.031,223.962 384.000,224.914 384.000 C 226.077 384.000,227.388 382.666,227.061 381.815 C 226.837 381.231,227.867 380.958,229.500 381.170 C 229.861 381.217,230.000 380.414,230.000 378.290 L 230.000 375.346 231.437 375.459 C 232.661 375.555,232.802 375.485,232.388 374.986 C 232.047 374.575,232.036 374.400,232.351 374.400 C 232.598 374.400,232.800 373.961,232.800 373.425 C 232.800 372.618,233.023 372.429,234.100 372.325 C 235.243 372.215,235.415 372.043,235.525 370.900 C 235.649 369.620,235.974 369.426,237.887 369.490 C 238.155 369.499,238.351 369.213,238.324 368.853 C 238.296 368.494,238.302 367.255,238.337 366.100 L 238.400 364.000 239.973 364.000 C 241.464 364.000,241.545 363.937,241.512 362.794 C 241.471 361.335,241.507 361.293,243.007 361.092 C 244.180 360.935,244.201 360.890,244.244 358.455 C 244.295 355.620,244.312 355.589,245.854 355.473 C 246.832 355.400,247.018 355.197,247.125 354.094 C 247.239 352.918,247.373 352.800,248.589 352.800 L 249.926 352.800 249.913 349.900 L 249.900 347.000 251.350 346.876 C 252.712 346.759,252.800 346.668,252.800 345.376 C 252.800 344.070,252.871 344.000,254.200 344.000 L 255.600 344.000 255.600 341.096 L 255.600 338.192 256.900 338.196 C 258.075 338.200,258.212 338.075,258.325 336.900 C 258.434 335.771,258.599 335.600,259.576 335.600 C 261.210 335.600,261.598 334.869,261.451 332.071 L 261.320 329.600 262.893 329.600 C 264.459 329.600,264.465 329.595,264.277 328.200 C 264.090 326.815,264.104 326.800,265.589 326.800 L 267.090 326.800 267.045 324.000 C 266.997 321.032,267.143 320.864,269.500 321.170 C 269.818 321.211,270.000 320.720,270.000 319.818 C 270.000 318.464,270.063 318.400,271.400 318.400 L 272.800 318.400 272.800 315.444 L 272.800 312.487 274.200 312.623 C 275.587 312.757,275.600 312.743,275.600 311.179 C 275.600 309.641,275.636 309.600,277.000 309.600 L 278.400 309.600 278.400 306.800 L 278.400 304.000 279.624 304.000 C 280.496 304.000,280.761 303.856,280.547 303.500 C 280.352 303.175,280.489 303.197,280.940 303.563 C 281.577 304.080,281.620 304.007,281.471 302.663 C 281.311 301.207,281.318 301.200,282.830 301.200 L 284.350 301.200 284.275 298.321 L 284.200 295.441 285.598 295.421 C 286.759 295.404,287.005 295.247,287.048 294.500 C 287.077 294.005,287.123 293.420,287.150 293.200 C 287.178 292.980,287.830 292.800,288.600 292.800 L 290.000 292.800 290.000 289.800 L 290.000 286.800 291.400 286.800 C 292.733 286.800,292.800 286.733,292.800 285.400 C 292.800 284.067,292.867 284.000,294.200 284.000 L 295.600 284.000 295.600 281.200 C 295.600 278.281,295.905 277.945,298.168 278.375 C 298.370 278.414,298.280 278.130,297.968 277.746 C 297.605 277.299,297.581 277.155,297.900 277.347 C 298.248 277.556,298.400 277.336,298.400 276.624 C 298.400 275.775,298.588 275.599,299.500 275.594 C 301.455 275.583,301.741 275.131,301.497 272.440 C 301.323 270.519,301.395 269.989,301.838 269.950 C 302.147 269.923,302.805 269.877,303.300 269.848 C 304.057 269.805,304.196 269.574,304.176 268.398 C 304.154 267.094,304.248 266.987,305.576 266.800 L 307.000 266.600 306.968 263.900 C 306.951 262.415,307.041 261.181,307.168 261.157 C 307.296 261.134,307.940 261.089,308.600 261.057 C 309.655 261.007,309.800 260.855,309.796 259.800 C 309.793 258.732,309.947 258.578,311.196 258.400 L 312.600 258.200 312.718 255.279 C 312.827 252.587,312.897 252.377,313.618 252.606 C 314.095 252.757,314.400 252.668,314.400 252.378 C 314.400 252.039,314.595 252.060,315.077 252.451 C 315.488 252.785,315.640 252.811,315.465 252.518 C 314.775 251.369,315.633 250.000,317.043 250.000 L 318.400 250.000 318.400 247.000 C 318.400 244.891,318.549 243.986,318.900 243.954 C 319.175 243.928,319.670 243.883,320.000 243.854 C 320.330 243.824,320.557 243.581,320.505 243.314 C 320.452 243.047,320.639 242.917,320.919 243.024 C 321.220 243.140,321.453 242.885,321.490 242.401 C 321.530 241.875,321.382 241.678,321.076 241.850 C 320.749 242.034,320.725 241.980,321.001 241.678 C 321.221 241.436,322.073 241.193,322.894 241.138 L 324.386 241.037 324.232 238.319 C 324.068 235.407,324.124 235.338,326.478 235.528 C 327.020 235.572,327.130 235.302,327.022 234.191 C 326.889 232.818,326.907 232.800,328.444 232.800 L 330.000 232.800 330.000 229.800 C 330.000 226.848,330.016 226.800,331.024 226.800 C 331.596 226.800,331.940 226.626,331.803 226.405 C 331.663 226.178,331.823 226.111,332.179 226.247 C 332.658 226.431,332.800 226.202,332.800 225.243 C 332.800 224.089,332.900 224.000,334.200 224.000 L 335.600 224.000 335.600 221.200 C 335.600 218.706,335.684 218.400,336.367 218.400 C 337.813 218.400,338.400 217.933,338.400 216.781 C 338.400 215.761,338.549 215.636,339.900 215.524 C 341.269 215.411,341.411 215.287,341.525 214.100 C 341.630 213.014,341.815 212.800,342.649 212.800 C 343.213 212.800,343.540 212.626,343.400 212.400 C 343.264 212.180,343.436 212.000,343.783 212.000 C 344.305 212.000,344.388 211.562,344.268 209.420 L 344.125 206.841 345.562 206.720 C 346.862 206.612,347.012 206.475,347.125 205.300 C 347.249 204.015,347.582 203.808,349.262 203.973 C 349.818 204.027,349.921 203.617,349.911 201.402 C 349.898 198.373,349.905 198.361,351.559 198.314 C 352.693 198.281,352.800 198.163,352.800 196.939 C 352.800 195.673,352.877 195.600,354.211 195.600 L 355.622 195.600 355.545 191.400 C 355.468 187.258,355.454 187.200,354.510 187.200 C 353.860 187.200,353.643 187.361,353.835 187.700 C 354.061 188.100,354.010 188.100,353.579 187.700 C 353.156 187.308,345.342 187.200,317.320 187.200 L 281.600 187.200 281.600 188.600 M141.072 191.861 C 140.929 192.005,140.283 192.107,139.638 192.089 C 138.290 192.050,138.029 192.481,138.298 194.300 C 138.655 196.712,141.284 195.374,141.442 192.700 C 141.511 191.526,141.479 191.454,141.072 191.861 M56.596 201.594 C 56.736 201.821,56.569 202.114,56.225 202.246 C 55.472 202.535,55.393 203.946,56.114 204.222 C 57.000 204.562,58.773 204.614,58.787 204.300 C 58.904 201.591,58.816 201.371,57.571 201.277 C 56.812 201.219,56.439 201.340,56.596 201.594 M130.800 203.925 C 129.055 204.492,129.545 206.653,131.434 206.724 C 132.773 206.775,133.288 206.264,132.300 205.865 C 131.900 205.704,131.900 205.657,132.300 205.632 C 132.575 205.614,132.800 205.261,132.800 204.847 C 132.800 204.053,131.811 203.597,130.800 203.925 M50.173 211.700 C 50.189 212.635,50.337 213.355,50.501 213.300 C 50.666 213.245,51.340 213.200,52.000 213.200 C 53.101 213.200,53.200 213.086,53.200 211.824 C 53.200 210.463,52.550 209.568,52.055 210.249 C 51.683 210.761,50.800 210.867,50.800 210.400 C 50.800 210.180,50.652 210.000,50.471 210.000 C 50.291 210.000,50.156 210.765,50.173 211.700 M123.778 216.035 C 123.631 216.274,123.710 216.670,123.955 216.915 C 124.282 217.242,124.400 217.126,124.400 216.480 C 124.400 215.514,124.192 215.365,123.778 216.035 M123.062 217.783 C 122.892 218.226,123.076 218.398,123.713 218.394 C 124.201 218.391,124.420 218.253,124.200 218.089 C 123.980 217.925,123.687 217.650,123.549 217.478 C 123.412 217.306,123.192 217.443,123.062 217.783 M44.555 220.970 C 44.678 223.556,44.750 223.746,45.643 223.837 C 47.890 224.063,48.173 223.380,47.470 219.433 C 47.335 218.675,46.000 218.132,46.000 218.835 C 46.000 219.296,45.094 219.131,44.712 218.600 C 44.553 218.380,44.483 219.447,44.555 220.970 " stroke="none" fill="#cccccc" fill-rule="evenodd"></path><path id="path2" d="M312.383 119.162 C 311.419 120.159,311.381 122.277,312.321 122.575 C 315.027 123.434,315.934 122.568,315.356 119.678 C 315.076 118.279,313.501 118.006,312.383 119.162 M320.700 130.757 C 319.924 131.544,319.760 133.405,320.431 133.819 C 321.172 134.277,324.686 134.465,324.000 134.010 C 323.629 133.764,323.584 133.610,323.881 133.606 C 324.476 133.599,324.254 131.388,323.577 130.572 C 322.937 129.801,321.556 129.890,320.700 130.757 M335.321 150.780 C 334.303 152.478,334.904 153.799,336.700 153.812 C 338.430 153.823,339.319 151.815,337.957 150.974 C 337.638 150.776,337.637 150.625,337.951 150.430 C 338.192 150.281,337.782 150.160,337.040 150.160 C 336.250 150.160,335.539 150.416,335.321 150.780 M343.832 161.986 C 342.980 162.959,342.753 164.188,343.298 164.872 C 343.860 165.578,346.781 166.159,346.833 165.575 C 346.852 165.369,346.867 164.570,346.867 163.800 C 346.867 161.660,346.846 161.607,346.134 161.881 C 345.756 162.026,345.571 161.971,345.705 161.754 C 346.099 161.117,344.408 161.326,343.832 161.986 M48.400 230.402 C 48.000 230.659,47.967 230.790,48.300 230.794 C 48.602 230.798,48.484 231.116,48.000 231.600 C 47.127 232.473,46.956 233.200,47.624 233.200 C 47.857 233.200,47.936 233.380,47.800 233.600 C 47.664 233.820,47.750 234.000,47.990 234.000 C 48.303 234.000,48.307 234.227,48.003 234.794 C 47.616 235.518,47.664 235.556,48.548 235.220 C 49.891 234.709,50.000 234.937,50.000 238.243 L 50.000 241.152 51.500 241.276 C 52.802 241.384,53.017 241.545,53.127 242.500 C 53.196 243.105,53.432 243.600,53.650 243.600 C 53.869 243.600,53.933 243.375,53.794 243.100 C 53.655 242.825,53.799 242.915,54.114 243.300 C 54.430 243.685,54.871 244.000,55.095 244.000 C 55.319 244.000,55.749 244.305,56.051 244.677 C 56.424 245.137,56.440 245.257,56.100 245.053 C 55.323 244.586,55.510 245.141,56.459 246.117 C 57.159 246.836,57.271 246.866,57.064 246.279 C 56.883 245.767,56.953 245.650,57.305 245.873 C 57.577 246.046,57.980 246.191,58.200 246.196 C 58.422 246.200,58.613 247.369,58.628 248.826 C 58.660 251.805,58.983 252.968,59.703 252.694 C 60.416 252.423,62.096 253.122,61.817 253.573 C 61.531 254.036,63.138 255.600,63.899 255.600 C 64.212 255.600,64.325 255.401,64.162 255.138 C 63.989 254.859,64.052 254.785,64.321 254.951 C 64.565 255.102,64.652 255.519,64.515 255.878 C 64.358 256.285,64.425 256.432,64.690 256.268 C 64.924 256.123,65.223 256.283,65.354 256.623 C 65.504 257.016,65.428 257.141,65.144 256.965 C 64.874 256.799,64.770 256.910,64.881 257.244 C 64.983 257.550,65.388 257.862,65.781 257.938 C 66.268 258.033,66.397 257.918,66.186 257.577 C 65.984 257.250,66.039 257.177,66.345 257.366 C 66.602 257.525,66.691 257.853,66.541 258.096 C 66.367 258.377,66.504 258.446,66.922 258.285 C 67.281 258.148,67.698 258.235,67.849 258.479 C 68.016 258.750,67.941 258.811,67.657 258.635 C 67.316 258.425,67.214 259.106,67.276 261.174 L 67.361 264.000 68.907 264.000 C 70.197 264.000,70.418 264.116,70.236 264.700 C 70.116 265.085,70.211 265.670,70.447 266.000 C 70.799 266.493,70.831 266.465,70.629 265.843 C 70.420 265.205,70.476 265.165,70.986 265.589 C 71.319 265.865,71.493 266.250,71.372 266.445 C 71.251 266.640,71.714 266.800,72.400 266.800 C 73.302 266.800,73.559 266.938,73.327 267.300 C 72.873 268.009,72.781 271.200,73.214 271.200 C 73.413 271.200,73.459 271.501,73.318 271.869 C 73.125 272.373,73.224 272.476,73.718 272.287 C 74.079 272.148,74.488 272.219,74.628 272.445 C 74.767 272.670,75.135 272.757,75.446 272.638 C 75.858 272.480,75.966 272.673,75.844 273.347 C 75.659 274.365,77.612 275.887,78.444 275.373 C 78.738 275.191,78.799 275.373,78.627 275.916 C 78.478 276.384,78.572 276.859,78.846 277.028 C 79.146 277.214,79.219 277.154,79.041 276.866 C 78.861 276.575,78.974 276.492,79.354 276.638 C 79.692 276.768,79.848 277.131,79.714 277.479 C 79.531 277.956,79.670 278.032,80.339 277.819 C 80.873 277.650,81.200 277.718,81.200 277.997 C 81.200 278.244,81.335 278.363,81.500 278.260 C 81.665 278.158,81.741 279.407,81.668 281.037 L 81.537 284.000 82.904 284.000 C 84.363 284.000,85.770 285.698,84.679 286.142 C 84.416 286.249,84.605 286.374,85.100 286.418 C 85.968 286.497,86.465 286.591,87.100 286.797 C 87.265 286.851,87.517 286.880,87.659 286.861 C 87.801 286.843,87.827 287.175,87.716 287.599 C 87.488 288.471,88.423 289.600,89.371 289.600 C 89.883 289.600,90.000 290.120,90.000 292.382 L 90.000 295.164 91.300 295.407 C 92.015 295.541,96.290 295.544,100.800 295.414 C 114.282 295.026,197.270 294.762,197.057 295.109 C 196.948 295.285,197.196 295.429,197.608 295.429 C 198.333 295.429,198.357 294.425,198.389 263.574 C 198.422 230.373,198.422 230.365,197.158 230.608 C 196.729 230.691,196.485 230.587,196.614 230.377 C 196.938 229.854,49.215 229.879,48.400 230.402 " stroke="none" fill="#7c7c7c" fill-rule="evenodd"></path><path id="path3" d="M193.633 2.354 C 193.331 2.773,193.155 3.197,193.242 3.297 C 193.329 3.396,193.150 3.779,192.843 4.148 C 192.357 4.733,192.371 4.786,192.949 4.564 C 193.312 4.425,193.849 4.509,194.142 4.752 C 194.434 4.994,194.791 5.076,194.934 4.933 C 195.077 4.790,195.194 29.396,195.194 59.613 C 195.194 95.395,195.333 114.693,195.591 114.951 C 196.077 115.437,197.644 115.595,197.356 115.129 C 197.242 114.945,197.432 114.686,197.777 114.553 C 198.344 114.336,198.405 108.841,198.397 58.371 C 198.390 9.039,198.319 2.456,197.795 2.657 C 197.468 2.783,197.200 2.701,197.200 2.476 C 197.200 2.251,197.425 1.992,197.699 1.900 C 197.974 1.809,197.295 1.702,196.190 1.663 C 194.621 1.607,194.062 1.758,193.633 2.354 M197.900 84.469 C 197.842 99.281,197.794 87.280,197.794 57.800 C 197.794 28.320,197.842 16.201,197.900 30.869 C 197.958 45.537,197.958 69.657,197.900 84.469 M188.000 8.000 C 186.685 9.388,187.029 10.700,188.693 10.644 C 190.170 10.594,190.200 10.562,190.200 9.030 C 190.200 7.283,189.145 6.790,188.000 8.000 M183.522 15.911 C 183.148 15.988,182.936 16.290,183.049 16.585 C 183.162 16.879,183.083 17.225,182.872 17.355 C 182.662 17.485,182.515 17.368,182.545 17.096 C 182.575 16.823,182.420 16.555,182.200 16.500 C 181.980 16.445,181.822 16.670,181.850 17.000 C 181.878 17.330,181.925 18.095,181.956 18.700 C 181.996 19.483,182.112 19.643,182.358 19.255 C 182.649 18.794,182.737 18.794,182.921 19.255 C 183.102 19.708,183.202 19.710,183.514 19.266 C 183.721 18.972,184.049 18.748,184.245 18.768 C 184.660 18.810,184.786 17.267,184.439 16.383 C 184.308 16.047,183.895 15.835,183.522 15.911 M177.052 24.885 C 177.160 25.058,177.002 25.200,176.703 25.200 C 176.363 25.200,176.145 25.688,176.122 26.500 C 176.088 27.683,176.192 27.800,177.271 27.800 C 178.431 27.800,179.133 27.101,178.978 26.100 C 178.935 25.825,178.878 25.332,178.850 25.004 C 178.819 24.629,178.441 24.439,177.829 24.489 C 177.295 24.534,176.945 24.712,177.052 24.885 M172.094 33.359 C 172.475 33.645,172.670 33.997,172.526 34.140 C 172.383 34.284,171.976 34.140,171.623 33.821 C 171.159 33.401,170.819 33.356,170.391 33.658 C 169.873 34.024,169.875 34.052,170.402 33.888 C 171.102 33.670,172.082 34.559,171.676 35.044 C 171.524 35.225,171.687 35.156,172.037 34.890 C 172.387 34.624,172.754 34.488,172.853 34.586 C 172.952 34.685,173.058 34.431,173.088 34.022 C 173.123 33.565,172.809 33.194,172.272 33.059 C 171.479 32.860,171.463 32.887,172.094 33.359 M170.318 35.319 C 170.188 35.996,170.330 36.229,170.872 36.229 C 171.272 36.229,171.600 36.087,171.600 35.914 C 171.600 35.741,171.409 35.600,171.176 35.600 C 170.943 35.600,170.856 35.432,170.983 35.228 C 171.109 35.023,171.051 34.755,170.852 34.632 C 170.654 34.510,170.413 34.819,170.318 35.319 M165.087 42.282 C 165.196 42.567,165.097 42.800,164.866 42.800 C 164.612 42.800,164.476 43.712,164.523 45.100 C 164.598 47.334,164.568 47.404,163.500 47.527 C 162.183 47.678,162.016 48.403,163.300 48.394 C 165.108 48.382,166.593 44.461,165.131 43.557 C 164.904 43.417,165.277 43.056,165.960 42.754 C 167.517 42.064,167.556 41.560,166.044 41.675 C 165.284 41.733,164.956 41.941,165.087 42.282 M159.244 50.718 C 158.980 51.210,158.860 52.526,158.962 53.790 C 159.148 56.075,159.139 56.089,157.321 56.104 C 156.838 56.108,156.360 56.327,156.259 56.590 C 156.009 57.243,158.624 57.136,159.293 56.466 C 159.572 56.187,159.800 55.038,159.800 53.913 C 159.800 52.435,159.966 51.822,160.400 51.703 C 160.933 51.557,160.933 51.586,160.400 51.963 C 160.070 52.197,160.003 52.391,160.251 52.394 C 161.125 52.406,161.785 51.221,161.204 50.683 C 160.795 50.304,160.744 50.308,160.965 50.700 C 161.385 51.444,160.765 51.305,160.197 50.528 C 159.746 49.911,159.667 49.926,159.244 50.718 M153.185 62.746 C 153.603 64.204,153.289 64.694,151.830 64.864 C 150.110 65.064,150.133 65.834,151.859 65.883 C 154.100 65.946,155.395 63.555,153.920 62.080 C 153.121 61.281,152.838 61.537,153.185 62.746 M147.200 69.814 C 147.200 70.029,147.368 70.789,147.572 71.503 C 147.986 72.945,147.110 73.847,145.789 73.340 C 145.405 73.193,144.968 73.322,144.766 73.642 C 144.254 74.450,144.321 74.896,144.900 74.536 C 145.175 74.365,145.795 74.276,146.278 74.338 C 147.758 74.529,148.855 73.691,148.714 72.476 C 148.596 71.450,147.200 68.997,147.200 69.814 M142.400 77.000 C 142.400 77.550,142.469 78.000,142.553 78.000 C 142.638 78.000,142.793 77.550,142.898 77.000 C 143.003 76.450,142.934 76.000,142.745 76.000 C 142.555 76.000,142.400 76.450,142.400 77.000 M141.712 80.300 C 141.798 81.771,141.772 81.800,140.363 81.800 C 139.192 81.800,138.960 81.929,139.110 82.500 C 139.342 83.386,141.096 83.428,142.311 82.577 C 143.561 81.702,143.452 78.800,142.169 78.800 C 141.790 78.800,141.651 79.257,141.712 80.300 M136.078 88.659 L 136.200 90.200 134.539 90.128 L 132.879 90.056 132.724 91.678 C 132.580 93.187,132.608 93.241,133.133 92.450 C 133.514 91.876,134.116 91.600,134.987 91.600 C 136.835 91.600,137.829 90.396,137.353 88.735 C 136.801 86.811,135.927 86.760,136.078 88.659 M129.929 96.081 C 130.837 97.232,130.372 98.915,129.100 99.082 C 128.495 99.162,128.000 99.041,128.000 98.814 C 128.000 98.586,127.820 98.400,127.600 98.400 C 127.380 98.400,127.200 98.850,127.200 99.400 C 127.200 100.293,127.364 100.400,128.738 100.400 C 131.530 100.400,132.643 97.487,130.400 96.050 C 129.469 95.454,129.437 95.456,129.929 96.081 M124.265 104.900 C 125.065 106.183,124.700 107.183,123.338 107.438 C 122.301 107.633,122.007 107.881,122.032 108.545 C 122.049 109.015,122.143 109.207,122.241 108.971 C 122.339 108.735,122.914 108.614,123.519 108.703 C 125.374 108.975,126.322 107.565,125.476 105.791 C 125.111 105.026,124.619 104.400,124.383 104.400 C 124.139 104.400,124.088 104.617,124.265 104.900 M118.260 113.387 C 118.136 113.710,118.207 114.081,118.417 114.211 C 119.150 114.663,118.838 116.000,118.000 116.000 C 117.560 116.000,117.200 115.798,117.200 115.551 C 117.200 115.241,117.015 115.256,116.600 115.600 C 115.430 116.571,115.863 117.465,117.443 117.341 C 119.283 117.196,120.000 116.590,120.000 115.180 C 120.000 113.608,118.693 112.261,118.260 113.387 M189.476 120.820 C 188.821 121.350,188.770 121.596,189.161 122.327 C 189.418 122.807,189.487 123.203,189.314 123.206 C 189.141 123.209,189.265 123.380,189.589 123.585 C 189.978 123.831,190.283 123.795,190.483 123.479 C 190.716 123.113,190.789 123.118,190.794 123.500 C 190.797 123.775,191.205 123.986,191.700 123.968 C 192.195 123.951,192.375 123.846,192.100 123.735 C 191.458 123.476,191.445 122.768,192.084 122.900 C 192.575 123.001,192.858 121.416,192.510 120.510 C 192.256 119.848,190.449 120.032,189.476 120.820 M110.788 121.992 C 111.168 122.227,111.154 122.411,110.727 122.811 C 109.619 123.845,110.304 125.947,111.741 125.921 C 114.066 125.878,115.116 123.980,113.787 122.224 C 113.464 121.796,113.200 121.661,113.200 121.924 C 113.200 122.186,113.009 122.400,112.776 122.400 C 112.543 122.400,112.438 122.262,112.542 122.094 C 112.646 121.926,112.183 121.766,111.514 121.739 C 110.814 121.710,110.506 121.818,110.788 121.992 M112.534 123.300 C 112.435 123.465,112.543 123.600,112.776 123.600 C 113.009 123.600,113.200 123.780,113.200 124.000 C 113.200 124.516,111.323 124.523,111.005 124.008 C 110.541 123.258,111.564 121.936,112.173 122.498 C 112.472 122.774,112.634 123.135,112.534 123.300 M183.527 129.275 C 183.048 129.752,182.886 130.457,182.976 131.675 C 183.046 132.624,183.025 133.104,182.930 132.743 C 182.824 132.336,182.481 132.158,182.031 132.276 C 181.074 132.526,181.039 135.607,181.993 135.587 C 183.519 135.555,184.123 134.505,184.048 132.012 C 183.978 129.685,184.147 129.360,185.322 129.560 C 185.499 129.590,186.039 129.338,186.522 129.000 C 187.369 128.406,187.344 128.389,185.803 128.492 C 184.924 128.552,183.900 128.904,183.527 129.275 M106.695 129.909 C 106.307 129.992,106.107 130.250,106.251 130.482 C 106.399 130.722,106.274 130.825,105.959 130.720 C 105.085 130.428,104.400 131.418,104.400 132.971 C 104.400 133.975,104.579 134.400,105.000 134.400 C 105.330 134.400,105.600 134.237,105.600 134.037 C 105.600 133.838,105.961 133.769,106.402 133.885 C 107.352 134.133,108.407 133.369,108.382 132.451 C 108.346 131.156,107.416 129.754,106.695 129.909 M100.297 138.847 C 99.910 139.065,99.459 139.160,99.295 139.058 C 99.130 138.957,98.964 139.763,98.925 140.850 L 98.854 142.826 100.327 142.561 C 102.314 142.203,102.887 141.710,102.392 140.784 C 102.176 140.382,101.997 139.636,101.994 139.126 C 101.989 138.451,101.894 138.348,101.642 138.745 C 101.434 139.074,101.238 139.124,101.148 138.870 C 101.048 138.586,100.771 138.579,100.297 138.847 M174.814 140.585 C 174.203 141.235,174.094 141.692,174.333 142.588 C 174.765 144.200,175.164 144.197,177.000 142.565 C 177.880 141.782,178.330 141.272,178.000 141.431 C 177.670 141.589,176.995 142.084,176.500 142.529 L 175.600 143.339 175.600 142.313 C 175.600 141.272,176.235 140.800,177.633 140.800 C 178.055 140.800,178.400 140.573,178.400 140.295 C 178.400 139.422,175.702 139.640,174.814 140.585 M174.629 145.829 C 174.055 146.402,173.779 147.200,174.154 147.200 C 174.239 147.200,174.603 146.750,174.963 146.200 C 175.707 145.065,175.558 144.899,174.629 145.829 M93.553 147.761 C 93.527 148.002,93.527 148.335,93.553 148.500 C 93.579 148.665,93.409 148.800,93.176 148.800 C 92.943 148.800,92.834 148.935,92.932 149.100 C 93.031 149.265,92.980 150.255,92.819 151.300 C 92.488 153.450,92.652 153.744,93.240 152.057 C 93.557 151.147,93.848 150.937,94.665 151.027 C 96.607 151.240,97.588 149.459,96.485 147.724 C 96.108 147.131,93.617 147.162,93.553 147.761 M167.289 151.823 C 166.383 152.457,166.037 154.529,166.762 154.977 C 166.962 155.100,167.078 155.516,167.020 155.900 C 166.962 156.285,166.992 156.375,167.087 156.100 C 167.181 155.825,167.436 155.600,167.653 155.600 C 167.870 155.600,167.925 155.402,167.775 155.160 C 167.580 154.843,167.725 154.839,168.295 155.144 C 169.274 155.668,169.882 154.507,169.680 152.500 C 169.532 151.028,168.743 150.804,167.289 151.823 M88.032 156.524 C 88.014 157.142,87.856 157.558,87.680 157.449 C 87.504 157.341,87.322 157.915,87.275 158.726 C 87.218 159.707,87.309 160.018,87.547 159.655 C 87.831 159.220,87.938 159.214,88.075 159.626 C 88.190 159.970,88.439 160.020,88.824 159.777 C 89.141 159.576,89.490 159.405,89.600 159.396 C 89.710 159.387,90.114 159.197,90.498 158.975 C 91.587 158.344,90.567 155.875,89.316 156.114 C 88.827 156.207,88.346 156.085,88.246 155.842 C 88.145 155.599,88.049 155.906,88.032 156.524 M160.888 160.273 C 160.100 160.935,159.618 163.487,159.995 165.000 C 160.204 165.839,159.973 166.014,159.200 165.600 C 158.565 165.260,158.400 165.296,158.400 165.772 C 158.400 166.329,159.939 167.488,160.050 167.014 C 160.078 166.896,160.131 166.575,160.168 166.300 C 160.206 166.025,160.423 165.835,160.652 165.878 C 160.880 165.921,161.098 165.651,161.137 165.278 C 161.227 164.414,161.195 162.045,161.084 161.453 C 160.975 160.864,163.102 160.620,163.738 161.149 C 164.094 161.444,164.229 161.360,164.229 160.845 C 164.229 160.453,164.042 160.116,163.814 160.096 C 163.586 160.075,163.030 159.943,162.577 159.802 C 162.058 159.641,161.434 159.816,160.888 160.273 M82.088 165.207 C 81.851 165.588,81.720 166.237,81.797 166.650 C 81.875 167.062,81.955 167.670,81.976 168.000 C 82.006 168.492,82.074 168.502,82.358 168.055 C 82.649 167.594,82.742 167.594,82.952 168.055 C 83.144 168.477,83.253 168.487,83.433 168.100 C 83.562 167.825,83.922 167.600,84.233 167.600 C 84.827 167.600,85.084 164.848,84.500 164.749 C 83.047 164.502,82.459 164.613,82.088 165.207 M153.200 171.197 C 152.046 171.470,150.993 173.331,151.430 174.324 C 151.593 174.696,151.694 175.148,151.654 175.330 C 151.613 175.511,151.784 175.534,152.033 175.380 C 152.343 175.188,152.400 175.368,152.216 175.950 C 152.056 176.454,152.120 176.800,152.373 176.800 C 152.623 176.800,152.800 175.905,152.800 174.642 L 152.800 172.483 154.100 172.542 C 155.156 172.589,155.423 172.435,155.525 171.723 C 155.656 170.800,155.254 170.709,153.200 171.197 M76.473 173.318 C 76.440 173.583,76.307 174.340,76.177 175.000 C 75.878 176.518,78.055 176.993,78.813 175.575 C 79.309 174.649,78.945 173.818,78.246 174.281 C 77.980 174.456,78.089 174.299,78.488 173.931 C 79.176 173.295,79.177 173.254,78.507 173.116 C 78.118 173.036,77.562 173.247,77.270 173.585 C 76.979 173.923,76.847 173.987,76.977 173.728 C 77.107 173.468,77.060 173.161,76.873 173.045 C 76.686 172.930,76.506 173.052,76.473 173.318 M72.063 181.651 C 71.548 181.844,70.963 181.901,70.763 181.777 C 70.359 181.528,70.338 181.606,70.257 183.614 C 70.213 184.716,70.355 185.029,70.900 185.029 C 71.285 185.029,71.600 184.866,71.600 184.668 C 71.600 184.469,71.948 184.398,72.374 184.509 C 73.296 184.750,73.517 184.239,73.220 182.550 C 73.023 181.433,72.901 181.338,72.063 181.651 M144.541 183.222 C 143.368 183.661,143.096 184.217,143.393 185.567 C 143.645 186.718,145.347 187.533,145.837 186.740 C 145.957 186.546,146.193 186.472,146.361 186.576 C 146.529 186.680,146.673 186.548,146.681 186.282 C 146.689 186.017,146.829 185.125,146.992 184.300 C 147.237 183.065,147.175 182.800,146.645 182.800 C 146.290 182.800,145.997 183.025,145.994 183.300 C 145.990 183.655,145.902 183.669,145.694 183.350 C 145.511 183.070,145.076 183.022,144.541 183.222 M65.200 190.328 C 64.415 190.684,64.321 193.200,65.092 193.200 C 65.410 193.200,65.525 193.003,65.362 192.738 C 65.194 192.466,65.251 192.384,65.502 192.539 C 66.278 193.019,67.187 192.351,67.105 191.361 C 67.043 190.613,66.858 190.455,66.263 190.644 C 65.762 190.802,65.594 190.733,65.774 190.443 C 66.079 189.949,66.050 189.943,65.200 190.328 M137.764 191.750 C 137.399 192.177,137.074 193.046,137.042 193.683 C 137.010 194.319,136.717 195.026,136.392 195.254 C 135.926 195.581,135.992 195.627,136.701 195.472 C 137.196 195.363,137.500 195.438,137.377 195.637 C 137.254 195.837,136.913 196.000,136.619 196.000 C 136.068 196.000,135.600 196.841,135.600 197.833 C 135.600 198.544,136.038 198.553,136.984 197.861 C 137.560 197.440,137.607 197.251,137.199 196.999 C 136.854 196.786,136.773 196.833,136.962 197.138 C 137.119 197.392,137.067 197.600,136.847 197.600 C 136.255 197.600,135.925 196.893,136.385 196.609 C 136.604 196.474,137.136 196.552,137.567 196.782 C 138.299 197.174,138.348 197.065,138.328 195.101 C 138.296 192.040,138.291 192.050,139.619 192.088 C 140.853 192.123,142.362 191.234,141.180 191.168 C 140.861 191.150,140.111 191.099,139.514 191.055 C 138.857 191.006,138.166 191.281,137.764 191.750 M59.098 199.035 C 58.534 199.600,58.769 201.600,59.400 201.600 C 60.033 201.600,60.087 201.193,59.658 199.669 C 59.514 199.156,59.262 198.871,59.098 199.035 M58.870 203.300 C 58.998 204.575,58.972 204.598,57.500 204.487 C 56.613 204.420,56.000 204.552,56.000 204.810 C 56.000 205.051,56.165 205.145,56.366 205.021 C 56.567 204.897,56.801 205.003,56.886 205.258 C 57.228 206.285,59.392 204.678,59.525 203.297 C 59.600 202.520,59.468 202.000,59.195 202.000 C 58.921 202.000,58.792 202.518,58.870 203.300 M129.242 203.168 C 127.936 204.154,128.299 206.768,129.747 206.794 C 129.937 206.797,130.009 206.362,129.907 205.826 C 129.641 204.436,130.137 203.871,131.586 203.912 C 132.565 203.940,132.820 203.796,132.719 203.274 C 132.542 202.351,130.411 202.286,129.242 203.168 M53.969 207.387 C 53.712 207.494,53.773 208.800,54.035 208.800 C 54.236 208.800,54.400 208.614,54.400 208.387 C 54.400 208.160,54.805 207.811,55.300 207.611 C 56.150 207.267,56.139 207.250,55.100 207.311 C 54.495 207.346,53.986 207.380,53.969 207.387 M53.087 210.993 L 53.274 213.200 52.086 213.200 C 51.433 213.200,50.674 213.470,50.400 213.800 C 50.056 214.215,50.041 214.400,50.351 214.400 C 50.598 214.400,50.800 214.209,50.800 213.976 C 50.800 213.738,51.018 213.689,51.300 213.865 C 52.258 214.464,53.004 214.363,53.626 213.552 C 54.268 212.715,54.215 210.400,53.555 210.400 C 53.360 210.400,53.200 210.209,53.200 209.976 C 53.200 209.743,53.368 209.656,53.572 209.783 C 53.777 209.909,54.076 209.785,54.236 209.507 C 54.397 209.228,54.381 209.133,54.201 209.297 C 54.021 209.460,53.655 209.411,53.387 209.189 C 53.012 208.878,52.944 209.290,53.087 210.993 M122.542 214.494 C 122.433 214.669,122.204 214.726,122.031 214.619 C 121.148 214.073,120.256 215.502,120.641 216.848 C 121.066 218.338,122.607 218.968,123.044 217.830 C 123.176 217.486,123.464 217.316,123.685 217.452 C 123.931 217.604,123.986 217.384,123.827 216.884 C 123.684 216.435,123.755 215.952,123.984 215.810 C 124.769 215.325,124.457 214.045,123.570 214.112 C 123.113 214.147,122.650 214.318,122.542 214.494 M47.900 216.489 C 47.515 216.880,47.402 217.200,47.649 217.200 C 47.940 217.200,47.967 217.376,47.726 217.700 C 47.521 217.975,47.400 218.560,47.458 219.000 C 47.515 219.440,47.628 220.569,47.709 221.508 C 47.853 223.181,48.758 224.845,48.836 223.580 C 48.961 221.535,48.659 218.959,48.265 218.708 C 47.918 218.488,47.924 218.411,48.287 218.406 C 48.577 218.402,48.671 218.130,48.519 217.734 C 48.379 217.368,48.430 217.169,48.632 217.292 C 49.057 217.551,49.751 216.837,49.906 215.984 C 49.980 215.575,49.840 215.619,49.441 216.129 C 49.014 216.673,48.836 216.721,48.735 216.317 C 48.631 215.903,48.437 215.943,47.900 216.489 M204.594 351.600 C 204.594 381.190,204.642 393.295,204.700 378.500 C 204.758 363.705,204.758 339.495,204.700 324.700 C 204.642 309.905,204.594 322.010,204.594 351.600 M224.093 385.200 C 224.093 385.970,224.175 386.285,224.276 385.900 C 224.376 385.515,224.376 384.885,224.276 384.500 C 224.175 384.115,224.093 384.430,224.093 385.200 " stroke="none" fill="#c4c4c4" fill-rule="evenodd"></path><path id="path4" d="M205.300 115.882 L 204.400 116.056 204.400 148.628 L 204.400 181.200 280.000 181.200 L 355.600 181.200 355.600 178.400 L 355.600 175.600 354.200 175.600 C 352.731 175.600,352.473 174.743,352.784 170.900 C 352.847 170.121,352.665 170.000,351.429 170.000 C 350.063 170.000,350.000 169.939,350.000 168.600 C 350.000 167.267,349.933 167.200,348.600 167.200 C 347.341 167.200,347.199 167.089,347.194 166.100 C 347.191 165.495,347.056 165.197,346.894 165.438 C 346.437 166.119,343.641 165.623,343.190 164.781 C 342.771 163.998,343.226 162.278,343.975 161.815 C 345.353 160.964,343.723 157.960,342.200 158.545 C 341.828 158.687,341.580 158.264,341.396 157.176 C 341.148 155.709,341.037 155.600,339.793 155.600 C 338.711 155.600,338.431 155.428,338.328 154.700 C 338.220 153.938,337.955 153.800,336.600 153.800 C 335.030 153.800,334.045 151.714,335.260 150.963 C 335.978 150.519,335.653 147.144,334.900 147.221 C 333.077 147.406,332.800 147.221,332.800 145.818 C 332.800 144.556,332.679 144.414,331.400 144.174 C 330.087 143.927,330.000 143.815,330.000 142.368 C 330.000 141.082,329.883 140.861,329.300 141.043 C 328.633 141.250,328.633 141.239,329.300 140.810 C 330.403 140.101,330.206 138.612,329.000 138.542 C 328.450 138.511,328.000 138.616,328.000 138.776 C 328.000 138.936,327.755 139.067,327.457 139.067 C 327.052 139.067,326.963 138.623,327.109 137.333 L 327.304 135.600 325.852 135.600 C 324.828 135.600,324.400 135.423,324.400 135.000 C 324.400 134.452,323.723 134.218,322.545 134.360 C 320.304 134.629,319.133 132.120,320.824 130.672 C 322.296 129.412,321.756 127.430,319.900 127.276 C 318.481 127.158,318.400 127.077,318.400 125.776 C 318.400 124.475,318.325 124.400,317.028 124.400 C 315.909 124.400,315.632 124.234,315.528 123.500 C 315.430 122.810,315.180 122.631,314.457 122.732 C 312.024 123.074,310.154 120.130,312.285 119.312 C 313.050 119.019,312.952 116.144,312.167 115.843 C 311.459 115.571,206.715 115.610,205.300 115.882 M323.681 130.782 C 324.233 131.666,324.622 131.555,324.262 130.617 C 324.132 130.278,323.838 130.000,323.609 130.000 C 323.346 130.000,323.372 130.287,323.681 130.782 M337.200 150.539 C 337.750 150.829,338.285 150.996,338.388 150.911 C 338.670 150.680,337.490 150.012,336.800 150.012 C 336.469 150.012,336.649 150.248,337.200 150.539 M345.459 161.695 C 345.581 161.893,345.921 161.962,346.215 161.850 C 346.508 161.737,346.836 161.819,346.944 162.032 C 347.052 162.246,347.098 162.205,347.047 161.941 C 346.996 161.678,346.568 161.434,346.096 161.400 C 345.623 161.365,345.337 161.498,345.459 161.695 M47.200 231.200 C 47.200 232.349,47.231 232.370,47.922 231.700 C 48.319 231.315,48.479 230.887,48.277 230.748 C 48.075 230.610,48.155 230.399,48.455 230.280 C 48.769 230.155,48.618 230.050,48.100 230.032 C 47.360 230.006,47.200 230.213,47.200 231.200 M196.622 230.365 C 196.498 230.566,196.712 230.681,197.098 230.622 C 197.484 230.562,197.932 230.713,198.094 230.957 C 198.276 231.232,198.390 231.135,198.394 230.700 C 198.400 229.963,197.030 229.704,196.622 230.365 M47.200 234.157 C 47.200 234.684,47.485 235.224,47.833 235.357 C 48.791 235.725,50.077 235.648,49.823 235.238 C 49.700 235.038,49.209 234.977,48.732 235.102 C 48.044 235.282,47.918 235.191,48.120 234.664 C 48.260 234.299,48.190 234.000,47.964 234.000 C 47.738 234.000,47.664 233.820,47.800 233.600 C 47.936 233.380,47.857 233.200,47.624 233.200 C 47.391 233.200,47.200 233.631,47.200 234.157 M57.047 246.179 C 57.178 246.521,57.524 246.800,57.815 246.800 C 58.106 246.800,58.430 247.205,58.536 247.700 C 58.664 248.304,58.706 248.206,58.663 247.400 C 58.629 246.740,58.420 246.197,58.200 246.194 C 57.980 246.191,57.577 246.046,57.305 245.873 C 56.964 245.657,56.884 245.752,57.047 246.179 M61.600 254.804 C 61.600 255.333,61.868 255.600,62.400 255.600 C 62.840 255.600,63.200 255.550,63.200 255.489 C 63.200 255.428,62.840 255.070,62.400 254.693 C 61.639 254.041,61.600 254.046,61.600 254.804 M64.667 256.267 C 63.948 256.985,64.419 258.400,65.376 258.400 C 66.485 258.400,67.047 257.800,66.345 257.366 C 66.039 257.177,65.984 257.250,66.186 257.577 C 66.397 257.918,66.268 258.033,65.781 257.938 C 65.388 257.862,64.983 257.550,64.881 257.244 C 64.770 256.910,64.874 256.799,65.144 256.965 C 65.428 257.141,65.504 257.016,65.353 256.621 C 65.083 255.919,65.038 255.895,64.667 256.267 M70.263 265.470 C 70.118 265.615,70.000 265.973,70.000 266.267 C 70.000 266.863,71.031 266.997,71.372 266.445 C 71.644 266.005,70.625 265.108,70.263 265.470 M75.855 275.000 C 75.982 275.330,76.461 275.600,76.919 275.600 C 77.738 275.600,77.739 275.590,76.976 275.013 C 75.972 274.253,75.567 274.248,75.855 275.000 M78.982 276.770 C 79.105 276.969,78.992 277.203,78.732 277.289 C 78.471 277.376,78.391 277.662,78.553 277.924 C 78.918 278.515,81.200 278.558,81.200 277.973 C 81.200 277.718,80.853 277.656,80.339 277.819 C 79.670 278.032,79.531 277.956,79.714 277.479 C 79.848 277.131,79.692 276.768,79.354 276.638 C 79.026 276.512,78.859 276.572,78.982 276.770 M87.467 287.067 C 87.045 287.488,87.156 289.126,87.627 289.416 C 87.861 289.561,88.171 289.562,88.315 289.418 C 88.459 289.274,88.331 289.005,88.031 288.819 C 87.714 288.623,87.577 288.130,87.705 287.641 C 87.939 286.747,87.894 286.639,87.467 287.067 M198.000 294.633 C 198.000 294.854,181.385 294.957,156.300 294.891 C 133.365 294.831,113.070 294.943,111.200 295.139 C 109.012 295.370,123.868 295.513,152.881 295.542 C 196.094 295.585,199.246 295.513,198.240 294.507 C 198.108 294.375,198.000 294.432,198.000 294.633 " stroke="none" fill="#747474" fill-rule="evenodd"></path></g></svg>